# xmcd CD database file
#
# Track frame offsets:
#	150
#	13482
#	25622
#	36520
#	47087
#	57928
#	69934
#	79863
#	92690
#	105917
#	118289
#	131141
#	141263
#	149799
#	161262
#	174168
#	185956
#	197544
#	209535
#	224162
#
# Disc length: 3130 seconds
#
# Revision: 1
# Processed by: cddbd v1.5.1PL2 Copyright (c) Steve Scherf et al.
# Submitted via: CDex 1.51
#
DISCID=340c3814
DTITLE=Various Artist - The Great Country Collection - 2 of 8
DYEAR=2002
DGENRE=Country
TTITLE0=Kenny Rogers - Shine On Ruby Mountain
TTITLE1=Hank Williams - Never Again (Will I Knock On Your Door)
TTITLE2=Donna Fargo - Wishful Thinking
TTITLE3=Jerry Wallace - Empty Arms Again
TTITLE4=Faron Young - Wine Me Up
TTITLE5=Conway Twitty - Maybe Baby
TTITLE6=Boxcar Willy - King Of The Road
TTITLE7=Kenny Rogers - Ruby Don't Take Your Love To Town
TTITLE8=Jerry Lee Lewis - You Win Again
TTITLE9=Billie Jo Spears - The Cheating Kind
TTITLE10=Freddy Fender - You'll Lose A Good Thing
TTITLE11=Mickey Gilley - I Miss You So
TTITLE12=Waylon Jennings - Abilene
TTITLE13=Kenny Rogers - Me And Bobby McGhee
TTITLE14=Conway Twitty - Crazy Dreams
TTITLE15=Barbara Fairchild - You Can't Put The City In A Country Girl
TTITLE16=Jeannie C. Riley - Before The Next Teardrop Falls
TTITLE17=Billie Jo Spears - What Have They Done To My Song Ma
TTITLE18=Lynn Anderson - Faithless Love
TTITLE19=Waylon Jennings - Burning Memories
EXTD=YEAR: 2002
EXTT0=
EXTT1=
EXTT2=
EXTT3=
EXTT4=
EXTT5=
EXTT6=
EXTT7=
EXTT8=
EXTT9=
EXTT10=
EXTT11=
EXTT12=
EXTT13=
EXTT14=
EXTT15=
EXTT16=
EXTT17=
EXTT18=
EXTT19=
PLAYORDER=
